<?xml version="1.0" encoding="utf-8"?>
<!-- Generator: Adobe Illustrator 26.2.1, SVG Export Plug-In . SVG Version: 6.00 Build 0)  -->
<svg version="1.1" id="Layer_1" xmlns="http://www.w3.org/2000/svg" xmlns:xlink="http://www.w3.org/1999/xlink" x="0px" y="0px"
	 viewBox="0 0 1920 100" style="enable-background:new 0 0 1920 100;" xml:space="preserve">
<style type="text/css">
	.st0{fill-rule:evenodd;clip-rule:evenodd;fill:#4C4C4C;fill-opacity:0.75;}
</style>
<g>
	<path class="st0" d="M960.5,0h-1C932.2,0,910,22.2,910,49.5v1c0,27.3,22.2,49.5,49.5,49.5h1c27.3,0,49.5-22.2,49.5-49.5v-1
		C1010,22.2,987.8,0,960.5,0z"/>
	<path class="st0" d="M0,26v48l904.8,0c-3.1-7.2-4.8-15.2-4.8-23.5c0-8.7,1.9-17,5.2-24.5L0,26z"/>
	<path class="st0" d="M1014.8,26c3.4,7.5,5.2,15.8,5.2,24.5c0,8.3-1.7,16.3-4.8,23.5l904.8,0V26L1014.8,26z"/>
</g>
</svg>
